<?xml version="1.0" encoding="UTF-8"?>
<svg width="235px" height="36px" viewBox="0 0 235 36" version="1.1" xmlns="http://www.w3.org/2000/svg" xmlns:xlink="http://www.w3.org/1999/xlink">
    <title>Artboard Copy 7</title>
    <defs>
        <linearGradient x1="-1.11022302e-14%" y1="50%" x2="100%" y2="50%" id="linearGradient-1">
            <stop stop-color="#808DFF" offset="0%"></stop>
            <stop stop-color="#8461FF" offset="100%"></stop>
        </linearGradient>
        <path d="M13.65,35.504 C17.43,35.504 20.37,34.58 22.512,32.69 C24.654,30.8 25.704,28.322 25.704,25.34 C25.704,20.09 22.05,17.36 14.196,15.134 C10.458,14.084 8.904,13.076 8.904,11.102 C8.904,9.128 10.584,7.742 13.272,7.742 C16.296,7.742 18.354,9.086 19.488,11.774 L25.116,8.708 C23.226,4.172 19.068,1.61 13.566,1.61 C10.416,1.61 7.686,2.534 5.46,4.424 C3.234,6.272 2.1,8.624 2.1,11.522 C2.1,13.958 2.94,15.974 4.62,17.612 C6.132,19.124 8.82,20.468 12.642,21.602 C15.078,22.316 16.716,22.988 17.556,23.576 C18.438,24.122 18.858,24.878 18.858,25.844 C18.858,27.86 16.758,29.33 13.86,29.33 C10.542,29.33 7.98,27.608 6.678,24.752 L0.798,27.776 C2.772,32.522 7.476,35.504 13.65,35.504 Z M40.992,35.294 C42.084,35.294 43.092,35.168 44.058,34.874 L44.058,29.456 C43.596,29.582 43.092,29.624 42.546,29.624 C39.984,29.624 38.64,28.616 38.64,26.054 L38.64,18.242 L44.184,18.242 L44.184,12.572 L38.64,12.572 L38.64,5.558 L32.172,5.558 L32.172,12.572 L28.056,12.572 L28.056,18.242 L32.088,18.242 L32.088,26.852 C32.088,32.102 35.154,35.294 40.992,35.294 Z M57.12,35.462 C59.808,35.462 61.908,34.37 63.378,32.228 L63.42,32.228 L63.42,35 L69.888,35 L69.888,12.572 L63.336,12.572 L63.336,25.088 C63.336,27.566 61.95,29.372 59.304,29.372 C56.658,29.372 55.44,27.734 55.44,25.088 L55.44,12.572 L48.888,12.572 L48.888,26.642 C48.888,29.12 49.602,31.22 50.988,32.942 C52.416,34.622 54.474,35.462 57.12,35.462 Z M85.26,35.42 C88.41,35.42 90.762,34.328 92.232,32.144 L92.316,32.144 L92.316,35 L98.658,35 L98.658,0.812 L92.148,0.812 L92.148,15.134 L92.064,15.134 C90.384,13.16 88.158,12.152 85.344,12.152 C82.278,12.152 79.716,13.328 77.658,15.722 C75.6,18.074 74.592,20.762 74.592,23.744 C74.592,26.894 75.6,29.666 77.574,31.976 C79.548,34.286 82.11,35.42 85.26,35.42 Z M86.772,29.498 C85.218,29.498 83.874,28.952 82.824,27.902 C81.774,26.81 81.228,25.424 81.228,23.744 C81.228,20.426 83.622,18.074 86.772,18.074 C89.922,18.074 92.316,20.426 92.316,23.744 C92.316,25.424 91.77,26.81 90.72,27.902 C89.67,28.952 88.326,29.498 86.772,29.498 Z M107.982,8.792 C110.292,8.792 112.098,6.986 112.098,4.76 C112.098,2.45 110.292,0.686 107.982,0.686 C105.798,0.686 103.95,2.534 103.95,4.76 C103.95,6.986 105.798,8.792 107.982,8.792 Z M111.342,35 L111.342,12.572 L104.748,12.572 L104.748,35 L111.342,35 Z M128.226,35.504 C131.628,35.504 134.526,34.37 136.92,32.144 C139.314,29.876 140.49,27.062 140.49,23.702 C140.49,20.384 139.314,17.654 136.962,15.428 C134.61,13.202 131.712,12.068 128.31,12.068 C124.908,12.068 121.968,13.202 119.574,15.47 C117.18,17.696 116.004,20.51 116.004,23.828 C116.004,27.188 117.18,29.96 119.532,32.186 C121.884,34.412 124.782,35.504 128.226,35.504 Z M128.268,29.498 C126.714,29.498 125.37,28.952 124.32,27.902 C123.27,26.81 122.724,25.424 122.724,23.744 C122.724,22.106 123.27,20.72 124.32,19.67 C125.37,18.578 126.672,18.032 128.226,18.032 C129.78,18.032 131.124,18.578 132.174,19.67 C133.224,20.72 133.77,22.106 133.77,23.744 C133.77,27.104 131.418,29.498 128.268,29.498 Z" id="path-2"></path>
    </defs>
    <g id="Artboard-Copy-7" stroke="none" stroke-width="1" fill="none" fill-rule="evenodd">
        <g id="Studio-Copy-3" fill-rule="nonzero">
            <use fill="#000000" xlink:href="#path-2"></use>
            <use fill="url(#linearGradient-1)" xlink:href="#path-2"></use>
        </g>
        <path d="M169.776,35 L182.838,10.094 L182.838,2.114 L157.176,2.114 L157.176,10.43 L172.17,10.43 L158.94,35 L169.776,35 Z M211.44,35 L211.44,27.104 L198,27.104 L203.04,23.282 C205.98,21.056 208.08,19.166 209.34,17.612 C210.642,16.016 211.272,14.294 211.272,12.404 C211.272,9.296 210.138,6.734 207.912,4.676 C205.686,2.618 202.662,1.568 198.756,1.568 C195.69,1.568 193.002,2.282 190.692,3.668 C188.382,5.054 186.828,7.112 186.03,9.842 L193.968,13.202 C194.766,11.228 196.488,9.842 198.378,9.842 C200.436,9.842 201.528,11.102 201.528,12.488 C201.528,14 200.52,15.26 197.328,17.78 L185.694,27.104 L185.694,35 L211.44,35 Z M233.574,35 L233.574,2.114 L225.762,2.114 L213.372,8.834 L217.782,16.478 L223.62,13.328 L223.62,35 L233.574,35 Z" id="721-copy-3" fill="#FFFFFF" fill-rule="nonzero"></path>
    </g>
</svg>