<?xml version="1.0" encoding="UTF-8"?>
<svg width="32px" height="32px" viewBox="0 0 32 32" version="1.1" xmlns="http://www.w3.org/2000/svg" xmlns:xlink="http://www.w3.org/1999/xlink">
    <title>icon-artkit</title>
    <g id="Page-1" stroke="none" stroke-width="1" fill="none" fill-rule="evenodd">
        <g id="icon-artkit">
            <rect id="Rectangle" fill="#8C7DFD" fill-rule="nonzero" x="0" y="0" width="32" height="32" rx="6"></rect>
            <path d="M16,7 C20.9705627,7 25.3830822,11.0736422 24.7124023,16 C23.9248047,21.7851563 17.9087895,17.3982962 16.7248535,19.6120605 C15.6867377,21.5531654 18.7231445,21.3976182 18.183936,23.673584 C17.9906751,24.4893263 16.8193656,25 16,25 C11.0294373,25 7,20.9705627 7,16 C7,11.0294373 11.0294373,7 16,7 Z M10.5,15 C9.67157288,15 9,15.6715729 9,16.5 C9,17.3284271 9.67157288,18 10.5,18 C11.3284271,18 12,17.3284271 12,16.5 C12,15.6715729 11.3284271,15 10.5,15 Z M21.5,12 C20.6715729,12 20,12.6715729 20,13.5 C20,14.3284271 20.6715729,15 21.5,15 C22.3284271,15 23,14.3284271 23,13.5 C23,12.6715729 22.3284271,12 21.5,12 Z M12.5,11 C11.6715729,11 11,11.6715729 11,12.5 C11,13.3284271 11.6715729,14 12.5,14 C13.3284271,14 14,13.3284271 14,12.5 C14,11.6715729 13.3284271,11 12.5,11 Z M17,9 C15.8954305,9 15,9.8954305 15,11 C15,12.1045695 15.8954305,13 17,13 C18.1045695,13 19,12.1045695 19,11 C19,9.8954305 18.1045695,9 17,9 Z" id="Oval-2" fill="#FFFFFF"></path>
        </g>
    </g>
</svg>