<?xml version="1.0" encoding="UTF-8"?>
<svg width="32px" height="32px" viewBox="0 0 32 32" version="1.1" xmlns="http://www.w3.org/2000/svg" xmlns:xlink="http://www.w3.org/1999/xlink">
    <title>icon-guide</title>
    <g id="Page-1" stroke="none" stroke-width="1" fill="none" fill-rule="evenodd">
        <g id="icon-guide">
            <rect id="Rectangle" fill="#8C7DFD" fill-rule="nonzero" x="0" y="0" width="32" height="32" rx="6"></rect>
            <path d="M7.04248047,7.02173531 C8.36165365,7.0767438 9.68082682,7.23616536 11,7.5 C12.0247125,7.70494249 13.0494249,7.97288712 14.0741374,8.30383389 L14.688734,8.51062733 C15.5380722,8.80533976 16.4619278,8.80533976 17.311266,8.51062733 C18.5406901,8.08258506 19.7703451,7.74593099 21,7.5 C22.3191732,7.23616536 23.6383464,7.0767438 24.9575195,7.02173531 C25.5093072,6.99830928 25.9756369,7.42660191 25.9990974,7.97838814 C25.9996801,7.99209487 25.9999808,8.00581215 26,8.01953125 L26,22.0195313 C25.9998768,22.5576954 25.5738704,22.999248 25.0360528,23.0185598 C23.6912713,23.0704081 22.3459204,23.2308882 21,23.5 C19.7697001,23.7459939 18.5393888,24.0826645 17.309066,24.5100117 L17.3094135,24.5110139 C16.4601514,24.8054706 15.5364641,24.8053003 14.6873106,24.5105306 C13.458803,24.0826645 12.2296394,23.7459939 11,23.5 C9.65317458,23.2305626 8.3063354,23.0700199 6.95948246,23.0183721 C6.42356648,22.9965555 6.00022784,22.5558911 6,22.0195313 L6,8.01953125 C6.00073869,7.46724699 6.44905164,7.02013024 7.00133589,7.02086804 L7.04248047,7.02173531 L7.04248047,7.02173531 Z M15,11.5 C13.0670034,11.5 11.5,13.0670034 11.5,15 C11.5,16.9329966 13.0670034,18.5 15,18.5 C15.630059,18.5 16.2212338,18.3335169 16.7319336,18.0421414 L19.7374369,21.048097 L20.798097,19.9874369 L17.8467766,17.0366006 C18.2579557,16.4628725 18.5,15.7597025 18.5,15 C18.5,13.0670034 16.9329966,11.5 15,11.5 Z M15,13 C16.1045695,13 17,13.8954305 17,15 C17,16.1045695 16.1045695,17 15,17 C13.8954305,17 13,16.1045695 13,15 C13,13.8954305 13.8954305,13 15,13 Z" id="Rectangle-4" fill="#FFFFFF"></path>
        </g>
    </g>
</svg>