<?xml version="1.0" encoding="UTF-8"?>
<svg width="32px" height="32px" viewBox="0 0 32 32" version="1.1" xmlns="http://www.w3.org/2000/svg" xmlns:xlink="http://www.w3.org/1999/xlink">
    <title>icon-mint</title>
    <g id="Page-1" stroke="none" stroke-width="1" fill="none" fill-rule="evenodd">
        <g id="icon-mint">
            <rect id="Rectangle" fill="#8C7DFD" fill-rule="nonzero" x="0" y="0" width="32" height="32" rx="6"></rect>
            <path d="M16.5,10 C21.7467051,10 26,13.3578644 26,17.5 C26,19.8327941 24.6509449,21.916834 22.5351505,23.2923967 L22.2504235,25.6215412 C22.1890111,26.1230761 21.763118,26.5 21.2578371,26.5 L18.6655586,26.5 C18.1940209,26.5 17.7865571,26.1705999 17.6877562,25.7095291 L17.5267902,24.9567015 C17.1894983,24.9853192 16.8469208,25 16.5,25 C16.1530792,25 15.8105017,24.9853192 15.4732098,24.9567015 L15.3122438,25.7095291 C15.2134429,26.1705999 14.8059791,26.5 14.3344414,26.5 L11.7421629,26.5 C11.236882,26.5 10.8109889,26.1230761 10.7495765,25.6215412 L10.4648495,23.2923967 C9.33471384,22.5576502 8.42333515,21.6207694 7.81945563,20.5518138 C7.74841514,20.5457859 7.67776309,20.5355526 7.60776773,20.5215535 L6.60776773,20.3215535 C5.67291934,20.1345839 5,19.3137542 5,18.3603922 L5,16.6396078 C5,15.6862458 5.67291934,14.8654161 6.60776773,14.6784465 L7.60776773,14.4784465 C7.67858189,14.4642836 7.74927009,14.4540493 7.81960664,14.4475931 C9.3002094,11.8270342 12.6298445,10 16.5,10 Z M11.5,14 C10.6715729,14 10,14.6715729 10,15.5 C10,16.3284271 10.6715729,17 11.5,17 C12.3284271,17 13,16.3284271 13,15.5 C13,14.6715729 12.3284271,14 11.5,14 Z" id="Combined-Shape" fill="#FFFFFF"></path>
            <path d="M10.4864999,10.2053896 C11.5910694,10.2053896 12.4864999,11.1008201 12.4864999,12.2053896 C12.4864999,12.4218406 12.4521152,12.6302606 12.3885101,12.8254854 C11.3208489,12.3069085 10.0641153,12.0086905 8.71873292,12.0086905 L8.49575742,12.0117107 C8.59316679,10.9980182 9.44726917,10.2053896 10.4864999,10.2053896 Z" id="Oval-3-Copy" fill="#FFFFFF" transform="translate(10.491177, 11.515438) rotate(-315.000000) translate(-10.491177, -11.515438) "></path>
            <path d="M27.0839749,14.7226499 C27.2371511,14.4928856 27.5475858,14.4307986 27.7773501,14.5839749 C28.0071144,14.7371511 28.0692014,15.0475858 27.9160251,15.2773501 C27.4058843,16.0425614 26.4735249,16.6019771 25.13637,16.9810439 C24.8706968,17.056359 24.5942712,16.9020432 24.5189561,16.63637 C24.443641,16.3706968 24.5979568,16.0942712 24.86363,16.0189561 C25.9925412,15.6989238 26.7268485,15.2583394 27.0839749,14.7226499 Z" id="Line" fill="#FFFFFF" fill-rule="nonzero"></path>
            <path d="M20,6 C21.6568542,6 23,7.34314575 23,9 C23,9.57131468 22.8402999,10.1053294 22.5631055,10.5598383 C22.1318827,10.3121692 21.6770111,10.0907137 21.2015165,9.89763195 C21.3890209,9.64761158 21.5,9.33676607 21.5,9 C21.5,8.17157288 20.8284271,7.5 20,7.5 C19.1715729,7.5 18.5,8.17157288 18.5,9 C18.5,9.05287833 18.5027362,9.10511759 18.5080746,9.15658394 C18.0179535,9.07837615 17.5141891,9.02901214 17.0007806,9.00949711 C17,7.34314575 18.3431458,6 20,6 Z" id="Oval-3" fill="#FFFFFF"></path>
        </g>
    </g>
</svg>