<?xml version="1.0" encoding="UTF-8"?>
<svg width="32px" height="32px" viewBox="0 0 32 32" version="1.1" xmlns="http://www.w3.org/2000/svg" xmlns:xlink="http://www.w3.org/1999/xlink">
    <title>icon-contract</title>
    <g id="Page-1" stroke="none" stroke-width="1" fill="none" fill-rule="evenodd">
        <g id="icon-contract">
            <rect id="Rectangle" fill="#8C7DFD" fill-rule="nonzero" x="0" y="0" width="32" height="32" rx="6"></rect>
            <path d="M21,6 C22.1045695,6 23,6.8954305 23,8 L23,24 C23,25.1045695 22.1045695,26 21,26 L11,26 C9.8954305,26 9,25.1045695 9,24 L9,8 C9,6.8954305 9.8954305,6 11,6 L21,6 Z M19,22 L12,22 C11.4477153,22 11,22.4477153 11,23 C11,23.5522847 11.4477153,24 12,24 L12,24 L19,24 C19.5522847,24 20,23.5522847 20,23 C20,22.4477153 19.5522847,22 19,22 L19,22 Z M19,19 L12,19 C11.4477153,19 11,19.4477153 11,20 C11,20.5522847 11.4477153,21 12,21 L12,21 L19,21 C19.5522847,21 20,20.5522847 20,20 C20,19.4477153 19.5522847,19 19,19 L19,19 Z M15,16 L12,16 C11.4477153,16 11,16.4477153 11,17 C11,17.5522847 11.4477153,18 12,18 L12,18 L15,18 C15.5522847,18 16,17.5522847 16,17 C16,16.4477153 15.5522847,16 15,16 L15,16 Z M19,13 L12,13 C11.4477153,13 11,13.4477153 11,14 C11,14.5522847 11.4477153,15 12,15 L12,15 L19,15 C19.5522847,15 20,14.5522847 20,14 C20,13.4477153 19.5522847,13 19,13 L19,13 Z M15,10 L12,10 C11.4477153,10 11,10.4477153 11,11 C11,11.5522847 11.4477153,12 12,12 L12,12 L15,12 C15.5522847,12 16,11.5522847 16,11 C16,10.4477153 15.5522847,10 15,10 L15,10 Z" id="Rectangle-2-Copy" fill="#FFFFFF"></path>
        </g>
    </g>
</svg>